<svg width="1656" height="252" viewBox="0 0 1656 252" fill="none" xmlns="http://www.w3.org/2000/svg">
<path d="M316.622 246.746H252.63V22.7635L212.096 246.746H104.919L64.3845 24.3374V246.746H0V5.25415H121.408L158.507 225.695L195.313 5.25415H316.72V246.746H316.622Z" fill="#F3F5F3"/>
<path d="M347.539 126.049C347.539 47.8472 399.851 0.827576 474.345 0.827576C548.838 0.827576 601.445 47.8472 601.445 126.049C601.445 204.251 549.133 251.172 474.345 251.172C399.557 251.172 347.539 204.153 347.539 126.049ZM528.816 126.049C528.816 80.8986 507.616 55.2247 474.246 55.2247C440.876 55.2247 420.069 80.9969 420.069 126.049C420.069 171.101 440.975 196.874 474.246 196.874C507.518 196.874 528.816 171.101 528.816 126.049Z" fill="#F3F5F3"/>
<path d="M810.891 5.25415H874.883V246.746H753.475L696.059 25.9113V246.746H631.674V5.25415H753.377L810.793 226.089V5.25415H810.891Z" fill="#F3F5F3"/>
<path d="M905.406 126.049C905.406 47.8472 957.719 0.827576 1032.21 0.827576C1106.71 0.827576 1159.31 47.8472 1159.31 126.049C1159.31 204.251 1107 251.172 1032.21 251.172C957.424 251.172 905.406 204.153 905.406 126.049ZM1086.68 126.049C1086.68 80.8986 1065.48 55.2247 1032.11 55.2247C998.744 55.2247 977.937 80.9969 977.937 126.049C977.937 171.101 998.842 196.874 1032.11 196.874C1065.39 196.874 1086.68 171.101 1086.68 126.049Z" fill="#F3F5F3"/>
<path d="M1260.4 189.496H1358.06V246.648H1189.74V5.25415H1260.4V189.496Z" fill="#F3F5F3"/>
<path d="M1381.12 246.746V5.25415H1451.79V246.746H1381.12Z" fill="#F3F5F3"/>
<path d="M1655.54 62.5039H1554.45V98.7031H1653.39V156.248H1554.45V246.746H1483.79V5.25415H1655.54V62.5039Z" fill="#F3F5F3"/>
</svg>
