<svg width="60" height="60" viewBox="0 0 60 60" fill="none" xmlns="http://www.w3.org/2000/svg">
<g clip-path="url(#clip0_210_12430)">
<path d="M21.4502 46.8826H24.8983V59.0486L27.0834 46.8826H32.8569L35.042 58.9676V46.8826H38.5101V60H31.9548L29.9501 48.0162L27.9655 60H21.4102V46.8826H21.4502Z" fill="#F3F5F3"/>
<path d="M40.2139 45.911L41.9379 42.8948L52.3823 48.9879L43.0405 40.9919L45.9272 35.9312L57.3739 40.0608L47.0097 34.0284L48.7538 30.9919L60 37.5506L56.7324 43.2794L45.4661 39.0486L54.7478 46.7612L51.4802 52.4899L40.2339 45.9312L40.2139 45.911Z" fill="#F3F5F3"/>
<path d="M48.7538 29.0282L47.0298 26.012L57.4741 19.9189L45.9472 24.089L43.0605 19.0282L52.3221 11.0728L41.9579 17.1052L40.2139 14.0687L51.4601 7.51001L54.7277 13.2388L45.4461 20.9715L56.7124 16.7205L59.98 22.4493L48.7337 29.008L48.7538 29.0282Z" fill="#F3F5F3"/>
<path d="M38.5501 13.1174H35.102V0.951417L32.9169 13.1174H27.1435L24.9383 1.03239V13.1174H21.4702V0H28.0255L30.0302 11.9838L31.9948 0H38.5501V13.1174Z" fill="#F3F5F3"/>
<path d="M19.7862 14.089L18.0621 17.1052L7.63782 11.0121L16.9796 19.008L14.0929 24.0687L2.62613 19.9392L12.9903 25.9716L11.2462 29.008L0 22.4493L3.26762 16.7206L14.5339 20.9513L5.2723 13.259L8.53993 7.53027L19.7862 14.089V14.089Z" fill="#F3F5F3"/>
<path d="M11.2462 30.9717L12.9702 33.9879L2.52587 40.081L14.0528 35.911L16.9395 40.9717L7.67789 48.9271L18.0421 42.8948L19.7861 45.9312L8.5399 52.4899L5.27227 46.7612L14.5539 39.0284L3.28764 43.2794L0.0200195 37.5506L11.2663 30.9919L11.2462 30.9717Z" fill="#F3F5F3"/>
</g>
<defs>
<clipPath id="clip0_210_12430">
<rect width="60" height="60" fill="white"/>
</clipPath>
</defs>
</svg>
